<?xml version="1.0" encoding="iso-8859-1"?>
<!-- Generator: Adobe Illustrator 19.0.0, SVG Export Plug-In . SVG Version: 6.00 Build 0)  -->
<svg version="1.1" id="Layer_1" xmlns="http://www.w3.org/2000/svg" xmlns:xlink="http://www.w3.org/1999/xlink" x="0px" y="0px"
	 viewBox="0 0 495 495" style="enable-background:new 0 0 495 495;" xml:space="preserve">
<g>
	<path style="fill:#FFDE55;" d="M260.419,247.5c0-104.516,64.786-193.896,156.387-230.185c-5.508-0.394-11.142-0.565-16.75-0.565
		c-127.44,0-230.75,103.31-230.75,230.75s103.31,230.75,230.75,230.75c5.608,0,11.242-0.171,16.75-0.565
		C325.205,441.396,260.419,352.016,260.419,247.5z"/>
	<path style="fill:#FFEB99;" d="M169.306,247.5c0-127.44,103.31-230.75,230.75-230.75c5.608,0,11.242,0.171,16.75,0.565
		C388.607,6.143,357.868,0,325.694,0c-136.69,0-247.5,110.81-247.5,247.5S189.003,495,325.694,495
		c32.175,0,62.914-6.144,91.113-17.315c-5.508,0.394-11.142,0.565-16.75,0.565C272.617,478.25,169.306,374.94,169.306,247.5z"/>
</g>
<g>
</g>
<g>
</g>
<g>
</g>
<g>
</g>
<g>
</g>
<g>
</g>
<g>
</g>
<g>
</g>
<g>
</g>
<g>
</g>
<g>
</g>
<g>
</g>
<g>
</g>
<g>
</g>
<g>
</g>
</svg>
