<?xml version="1.0" encoding="iso-8859-1"?>
<!-- Generator: Adobe Illustrator 19.0.0, SVG Export Plug-In . SVG Version: 6.00 Build 0)  -->
<svg version="1.1" id="Layer_1" xmlns="http://www.w3.org/2000/svg" xmlns:xlink="http://www.w3.org/1999/xlink" x="0px" y="0px"
	 viewBox="0 0 495 495" style="enable-background:new 0 0 495 495;" xml:space="preserve">
<g>
	<path style="fill:#FFDE55;" d="M358.331,247.5c0-77.371,35.51-146.44,91.113-191.825c-15.804-4.063-32.373-6.229-49.446-6.229
		c-109.382,0-198.054,88.672-198.054,198.054s88.672,198.054,198.054,198.054c17.072,0,33.642-2.166,49.446-6.229
		C393.841,393.94,358.331,324.871,358.331,247.5z"/>
	<path style="fill:#FFEB99;" d="M201.944,247.5c0-109.382,88.672-198.054,198.054-198.054c17.072,0,33.642,2.166,49.446,6.229
		C406.814,20.878,352.376,0,293.056,0c-136.69,0-247.5,110.81-247.5,247.5S156.366,495,293.056,495
		c59.32,0,113.757-20.878,156.387-55.675c-15.804,4.063-32.373,6.229-49.446,6.229C290.616,445.554,201.944,356.882,201.944,247.5z"
		/>
</g>
<g>
</g>
<g>
</g>
<g>
</g>
<g>
</g>
<g>
</g>
<g>
</g>
<g>
</g>
<g>
</g>
<g>
</g>
<g>
</g>
<g>
</g>
<g>
</g>
<g>
</g>
<g>
</g>
<g>
</g>
</svg>
