<?xml version="1.0" encoding="iso-8859-1"?>
<!-- Generator: Adobe Illustrator 19.0.0, SVG Export Plug-In . SVG Version: 6.00 Build 0)  -->
<svg version="1.1" id="Layer_1" xmlns="http://www.w3.org/2000/svg" xmlns:xlink="http://www.w3.org/1999/xlink" x="0px" y="0px"
	 viewBox="0 0 495 495" style="enable-background:new 0 0 495 495;" xml:space="preserve">
<g>
	<path style="fill:#FFEB99;" d="M325.694,247.5c0-124.91-99.254-226.625-223.195-230.614c-2.787,0.092-5.562,0.232-8.305,0.428
		C185.795,53.604,250.581,142.984,250.581,247.5c0,104.516-64.786,193.896-156.387,230.185c2.743,0.196,5.518,0.337,8.305,0.428
		C226.439,474.125,325.694,372.41,325.694,247.5z"/>
	<path style="fill:#FFDE55;" d="M169.306,0c-32.175,0-62.914,6.143-91.113,17.315c5.508-0.394,11.142-0.565,16.75-0.565
		c2.529,0,5.045,0.055,7.555,0.136C226.439,20.875,325.694,122.59,325.694,247.5s-99.254,226.625-223.195,230.614
		c-2.51,0.081-5.026,0.136-7.555,0.136c-5.608,0-11.242-0.171-16.75-0.565C106.393,488.856,137.132,495,169.306,495
		c136.69,0,247.5-110.81,247.5-247.5S305.997,0,169.306,0z"/>
</g>
<g>
</g>
<g>
</g>
<g>
</g>
<g>
</g>
<g>
</g>
<g>
</g>
<g>
</g>
<g>
</g>
<g>
</g>
<g>
</g>
<g>
</g>
<g>
</g>
<g>
</g>
<g>
</g>
<g>
</g>
</svg>
