<?xml version="1.0" encoding="iso-8859-1"?>
<!-- Generator: Adobe Illustrator 19.0.0, SVG Export Plug-In . SVG Version: 6.00 Build 0)  -->
<svg version="1.1" id="Layer_1" xmlns="http://www.w3.org/2000/svg" xmlns:xlink="http://www.w3.org/1999/xlink" x="0px" y="0px"
	 viewBox="0 0 495 495" style="enable-background:new 0 0 495 495;" xml:space="preserve">
<g>
	<path style="fill:#3E3D42;" d="M232.547,111.723c1.476-0.126,2.958-0.234,4.444-0.324c0.213-0.013,0.425-0.028,0.639-0.041
		c1.358-0.076,2.721-0.135,4.087-0.18c0.304-0.01,0.606-0.026,0.911-0.035c1.619-0.045,3.243-0.072,4.872-0.072
		s3.253,0.027,4.872,0.072c0.304,0.009,0.607,0.024,0.911,0.035c1.366,0.045,2.729,0.103,4.087,0.18
		c0.213,0.012,0.426,0.028,0.639,0.041c1.486,0.089,2.968,0.197,4.444,0.324c0.082,0.007,0.163,0.015,0.244,0.022
		c1.607,0.14,3.208,0.302,4.803,0.486V92.072h-40v20.159c1.595-0.184,3.196-0.346,4.803-0.486
		C232.385,111.738,232.466,111.73,232.547,111.723z"/>
	<path style="fill:#3E3D42;" d="M227.499,304.751l0.001,140.734c0,5.247-4.269,9.515-9.515,9.515c-5.247,0-9.516-4.268-9.516-9.515
		h-40c0,27.302,22.213,49.515,49.516,49.515s49.515-22.212,49.515-49.515l-0.001-140.734H227.499z"/>
	<rect x="47.544" y="101.692" style="fill:#9BC9FF;" width="40" height="64.769"/>
	<rect x="407.456" y="101.692" style="fill:#57A4FF;" width="40" height="64.769"/>
	<rect x="47.544" style="fill:#9BC9FF;" width="40" height="64.769"/>
	<rect x="137.522" style="fill:#9BC9FF;" width="40" height="98.547"/>
	<rect x="317.478" style="fill:#57A4FF;" width="40" height="98.547"/>
	<rect x="407.456" style="fill:#57A4FF;" width="40" height="64.769"/>
	<path style="fill:#FF6243;" d="M247.5,111.073c-1.63,0-3.253,0.027-4.872,0.072c-0.304,0.008-0.607,0.025-0.911,0.035
		c-1.366,0.045-2.729,0.103-4.087,0.18c-0.213,0.012-0.426,0.028-0.639,0.041c-1.486,0.089-2.968,0.197-4.444,0.324
		c-0.082,0.007-0.163,0.015-0.244,0.022c-1.607,0.14-3.208,0.302-4.803,0.486c-86.38,9.95-153.679,83.518-153.679,172.52v20H247.5
		V111.073z"/>
	<path style="fill:#FF3501;" d="M267.5,112.231c-1.595-0.184-3.196-0.346-4.803-0.486c-0.082-0.007-0.163-0.015-0.244-0.022
		c-1.476-0.126-2.958-0.234-4.444-0.324c-0.213-0.013-0.425-0.029-0.639-0.041c-1.358-0.076-2.721-0.135-4.087-0.18
		c-0.304-0.01-0.606-0.026-0.911-0.035c-1.619-0.045-3.243-0.072-4.872-0.072v193.679h173.679v-20
		C421.179,195.749,353.88,122.181,267.5,112.231z"/>
	<rect x="227.5" style="fill:#57A4FF;" width="40" height="64.769"/>
</g>
<g>
</g>
<g>
</g>
<g>
</g>
<g>
</g>
<g>
</g>
<g>
</g>
<g>
</g>
<g>
</g>
<g>
</g>
<g>
</g>
<g>
</g>
<g>
</g>
<g>
</g>
<g>
</g>
<g>
</g>
</svg>
