<svg height="512pt" viewBox="-40 0 512 512" width="512pt" xmlns="http://www.w3.org/2000/svg"><path d="m216.449219 125.429688c8.570312 0 15.515625-6.945313 15.515625-15.515626v-36.300781c0-8.570312-6.945313-15.515625-15.515625-15.515625-8.566407 0-15.515625 6.945313-15.515625 15.515625v36.300781c0 8.570313 6.949218 15.515626 15.515625 15.515626zm0 0" fill="#dae2f2"/><path d="m287.953125 424.957031c-8.570313 0-15.515625 6.945313-15.515625 15.515625v20.257813c0 11.15625-9.078125 20.234375-20.238281 20.234375-11.15625 0-20.234375-9.078125-20.234375-20.234375v-171.425781c0-8.570313-6.945313-15.515626-15.515625-15.515626-8.566407 0-15.511719 6.945313-15.511719 15.515626v171.425781c0 28.269531 22.996094 51.265625 51.261719 51.265625 28.269531 0 51.265625-22.996094 51.265625-51.265625v-20.257813c0-8.570312-6.945313-15.515625-15.511719-15.515625zm0 0" fill="#dae2f2"/><path d="m231.964844 73.609375v36.304687c0 8.574219-6.949219 15.511719-15.515625 15.511719v-67.332031c8.566406 0 15.515625 6.949219 15.515625 15.515625zm0 0" fill="#b9ceed"/><path d="m303.464844 440.476562v20.253907c0 28.265625-23 51.269531-51.269532 51.269531-13.878906 0-26.507812-5.554688-35.746093-14.5625v-223.648438c8.566406 0 15.515625 6.949219 15.515625 15.515626v171.425781c0 11.160156 9.082031 20.242187 20.230468 20.242187 11.160157 0 20.242188-9.082031 20.242188-20.242187v-20.253907c0-8.574218 6.949219-15.511718 15.515625-15.511718 8.5625 0 15.511719 6.9375 15.511719 15.511718zm0 0" fill="#b9ceed"/><path d="m432.898438 311.667969c0 8.574219-6.949219 15.511719-15.515626 15.511719-8.5625 0-15.511718-6.9375-15.511718-15.511719 0-9.960938-14.265625-21.070313-34.722656-21.070313-19.546876 0-34.722657 10.683594-34.722657 21.070313 0 8.574219-6.949219 15.511719-15.515625 15.511719-8.5625 0-15.511718-6.9375-15.511718-15.511719 0-9.960938-14.253907-21.070313-34.710938-21.070313-20.460938 0-34.722656 11.109375-34.722656 21.070313 0 8.511719-6.859375 15.421875-15.339844 15.511719h-.175781c-8.5625 0-15.515625-6.9375-15.515625-15.511719 0-9.960938-14.261719-21.070313-34.71875-21.070313-20.460938 0-34.714844 11.109375-34.714844 21.070313 0 8.574219-6.949219 15.511719-15.511719 15.511719-8.566406 0-15.515625-6.9375-15.515625-15.511719 0-9.960938-14.261718-21.070313-34.722656-21.070313-20.457031 0-34.722656 11.109375-34.722656 21.070313 0 8.574219-6.9375 15.511719-15.511719 15.511719-8.566406 0-15.515625-6.9375-15.515625-15.511719 0-119.601563 96.785156-216.449219 216.449219-216.449219h.175781c119.265625.089844 216.273438 97.160156 216.273438 216.449219zm0 0" fill="#fff1b6"/><path d="m432.898438 311.667969c0 8.574219-6.949219 15.511719-15.515626 15.511719-8.5625 0-15.511718-6.9375-15.511718-15.511719 0-9.960938-14.265625-21.070313-34.722656-21.070313-19.546876 0-34.722657 10.683594-34.722657 21.070313 0 8.574219-6.949219 15.511719-15.515625 15.511719-8.5625 0-15.511718-6.9375-15.511718-15.511719 0-9.960938-14.253907-21.070313-34.710938-21.070313-20.460938 0-34.722656 11.109375-34.722656 21.070313 0 8.511719-6.859375 15.421875-15.339844 15.511719v-231.960938c119.265625.089844 216.273438 97.160156 216.273438 216.449219zm0 0" fill="#ff7c48"/><path d="m332.664062 311.667969c0 8.574219-6.949218 15.511719-15.515624 15.511719-9.167969 0-15.75-7.21875-15.75-15.511719 0-9.960938-14.253907-21.070313-34.710938-21.070313-20.460938 0-34.722656 11.109375-34.722656 21.070313 0 8.511719-6.859375 15.421875-15.339844 15.511719h-.175781c-8.5625 0-15.515625-6.9375-15.515625-15.511719 0-9.960938-14.261719-21.070313-34.71875-21.070313-20.460938 0-34.714844 11.109375-34.714844 21.070313 0 8.574219-6.949219 15.511719-15.511719 15.511719h-.238281c-8.566406 0-15.515625-6.9375-15.515625-15.511719 0-116.023438 48.007813-216.449219 116.214844-216.449219h.175781c69.441406.175781 115.089844 102.378906 116.019531 212.847656.011719.484375.019531 3.140625.019531 3.601563zm0 0" fill="#ff946a"/><path d="m332.664062 311.667969c0 8.574219-6.949218 15.511719-15.515624 15.511719-9.167969 0-15.75-7.21875-15.75-15.511719 0-9.960938-14.253907-21.070313-34.710938-21.070313-20.460938 0-34.722656 11.109375-34.722656 21.070313 0 8.511719-6.859375 15.421875-15.339844 15.511719v-231.960938c69.441406.175781 115.089844 102.378906 116.019531 212.847656.011719.484375.019531 3.140625.019531 3.601563zm0 0" fill="#ffde55"/><path d="m15.515625 0c-8.566406 0-15.515625 6.945312-15.515625 15.515625v33.097656c0 8.566407 6.949219 15.515625 15.515625 15.515625s15.515625-6.949218 15.515625-15.515625v-33.097656c0-8.570313-6.949219-15.515625-15.515625-15.515625zm0 0" fill="#7ed8f6"/><path d="m149.472656 0c-8.570312 0-15.515625 6.945312-15.515625 15.515625v33.097656c0 8.566407 6.945313 15.515625 15.515625 15.515625 8.566406 0 15.515625-6.949218 15.515625-15.515625v-33.097656c0-8.570313-6.949219-15.515625-15.515625-15.515625zm0 0" fill="#7ed8f6"/><path d="m283.429688 0c-8.570313 0-15.515626 6.945312-15.515626 15.515625v33.097656c0 8.566407 6.945313 15.515625 15.515626 15.515625 8.566406 0 15.511718-6.949218 15.511718-15.515625v-33.097656c0-8.570313-6.945312-15.515625-15.511718-15.515625zm0 0" fill="#5ecef4"/><path d="m417.382812 0c-8.566406 0-15.511718 6.945312-15.511718 15.515625v33.097656c0 8.566407 6.945312 15.515625 15.511718 15.515625 8.570313 0 15.515626-6.949218 15.515626-15.515625v-33.097656c0-8.570313-6.945313-15.515625-15.515626-15.515625zm0 0" fill="#5ecef4"/><path d="m15.515625 122.214844c-8.566406 0-15.515625 6.945312-15.515625 15.511718v33.101563c0 8.566406 6.949219 15.511719 15.515625 15.511719s15.515625-6.945313 15.515625-15.511719v-33.101563c0-8.566406-6.949219-15.511718-15.515625-15.511718zm0 0" fill="#7ed8f6"/><path d="m417.382812 122.214844c-8.566406 0-15.511718 6.945312-15.511718 15.511718v33.101563c0 8.566406 6.945312 15.511719 15.511718 15.511719 8.570313 0 15.515626-6.945313 15.515626-15.511719v-33.101563c0-8.566406-6.945313-15.511718-15.515626-15.511718zm0 0" fill="#5ecef4"/><path d="m78.074219 59.699219c-8.566407 0-15.511719 6.945312-15.511719 15.515625v33.097656c0 8.566406 6.945312 15.515625 15.511719 15.515625 8.570312 0 15.515625-6.949219 15.515625-15.515625v-33.097656c0-8.570313-6.945313-15.515625-15.515625-15.515625zm0 0" fill="#7ed8f6"/><path d="m354.824219 59.699219c-8.566407 0-15.515625 6.945312-15.515625 15.515625v33.097656c0 8.566406 6.949218 15.515625 15.515625 15.515625 8.570312 0 15.515625-6.949219 15.515625-15.515625v-33.097656c0-8.570313-6.945313-15.515625-15.515625-15.515625zm0 0" fill="#5ecef4"/></svg>