<svg height="512pt" viewBox="-58 0 512 512" width="512pt" xmlns="http://www.w3.org/2000/svg"><path d="m230.507812 396.757812c0 63.648438-51.59375 115.25-115.253906 115.238282-.546875 0-1.085937 0-1.644531-.007813-62.046875-.867187-112.691406-51.476562-113.5976562-113.523437-.6015628-41.609375 20.8671872-78.21875 53.4257812-98.960938v-238.617187c0-33.625 27.265625-60.886719 60.886719-60.886719h1.859375c33.621094 0 60.886718 27.261719 60.886718 60.886719v238.617187c32.113282 20.457032 53.4375 56.347656 53.4375 97.253906zm0 0" fill="#eef6ff"/><path d="m230.5 396.753906c0 63.652344-51.582031 115.257813-115.242188 115.246094v-512h.925782c33.625 0 60.882812 27.269531 60.882812 60.882812v238.617188c32.121094 20.457031 53.433594 56.355469 53.433594 97.253906zm0 0" fill="#dae2f2"/><path d="m233.976562 246.957031c0 8.691407-7.046874 15.820313-15.816406 15.820313h-87.082031v120.636718c0 8.738282-7.085937 15.820313-15.820313 15.820313h-.011718c-8.738282 0-15.820313-7.082031-15.820313-15.820313v-319.085937c0-8.753906 7.097657-15.828125 15.832031-15.828125h.007813c8.746094.007812 15.8125 7.074219 15.8125 15.828125v100.425781h45.988281v31.648438h-45.988281v34.726562h87.082031c8.730469 0 15.816406 7.085938 15.816406 15.828125zm0 0" fill="#7ed8f6"/><path d="m233.976562 246.957031c0 8.691407-7.046874 15.820313-15.816406 15.820313h-87.082031v120.636718c0 8.738282-7.085937 15.820313-15.820313 15.820313v-350.734375h.007813c8.746094.007812 15.8125 7.074219 15.8125 15.828125v100.425781h45.988281v31.648438h-45.988281v34.726562h87.082031c8.730469 0 15.816406 7.085938 15.816406 15.828125zm0 0" fill="#5ecef4"/><path d="m166.613281 396.757812c0 28.359376-23 51.347657-51.359375 51.347657s-51.347656-22.988281-51.347656-51.347657c0-28.371093 22.988281-51.359374 51.347656-51.359374s51.359375 22.988281 51.359375 51.359374zm0 0" fill="#5ecef4"/><path d="m166.613281 396.757812c0 28.359376-23 51.347657-51.359375 51.347657v-102.707031c28.359375 0 51.359375 22.988281 51.359375 51.359374zm0 0" fill="#0fa9dd"/><path d="m393.660156 280.480469c-4.3125 7.457031-13.8125 9.863281-21.078125 5.648437l-26.679687-15.410156v32.226562c0 8.527344-6.914063 15.429688-15.429688 15.429688-8.527344 0-15.429687-6.902344-15.429687-15.429688v-32.226562l-26.691407 15.410156c-7.285156 4.226563-16.777343 1.792969-21.078124-5.648437-4.257813-7.375-1.726563-16.816407 5.648437-21.074219l26.691406-15.410156-26.691406-15.410156c-7.375-4.257813-9.90625-13.6875-5.648437-21.074219 4.257812-7.375 13.703124-9.90625 21.078124-5.648438l26.691407 15.410157v-32.226563c0-8.515625 6.902343-15.429687 15.429687-15.429687 8.515625 0 15.429688 6.914062 15.429688 15.429687v32.226563l26.679687-15.410157c7.375-4.257812 16.820313-1.726562 21.078125 5.648438 4.257813 7.386719 1.726563 16.816406-5.648437 21.074219l-26.679688 15.410156 26.679688 15.410156c7.375 4.257812 9.90625 13.699219 5.648437 21.074219zm0 0" fill="#5ecef4"/><path d="m393.660156 280.480469c-4.3125 7.457031-13.8125 9.863281-21.078125 5.648437l-26.679687-15.410156v32.226562c0 8.527344-6.914063 15.429688-15.429688 15.429688v-148.757812c8.515625 0 15.429688 6.914062 15.429688 15.429687v32.226563l26.679687-15.410157c7.375-4.257812 16.820313-1.726562 21.078125 5.648438 4.257813 7.386719 1.726563 16.816406-5.648437 21.074219l-26.679688 15.410156 26.679688 15.410156c7.375 4.257812 9.90625 13.699219 5.648437 21.074219zm0 0" fill="#0fa9dd"/></svg>